<svg xmlns="http://www.w3.org/2000/svg" width="960" height="420" viewBox="0 0 960 420">
  <rect width="960" height="420" fill="#f8fafc"/>
  <rect x="70" y="120" width="230" height="150" rx="12" fill="#0f766e"/>
  <text x="185" y="165" text-anchor="middle" font-family="Arial" font-size="26" fill="white">Main Agent</text>
  <text x="185" y="205" text-anchor="middle" font-family="Arial" font-size="16" fill="white">조율 · 최종 판단</text>
  <path d="M300 195 H425" stroke="#334155" stroke-width="4" marker-end="url(#a)"/>
  <rect x="430" y="70" width="220" height="100" rx="12" fill="#2563eb"/>
  <rect x="430" y="210" width="220" height="100" rx="12" fill="#7c3aed"/>
  <rect x="700" y="140" width="190" height="130" rx="12" fill="#475569"/>
  <text x="540" y="112" text-anchor="middle" font-family="Arial" font-size="22" fill="white">Research</text>
  <text x="540" y="148" text-anchor="middle" font-family="Arial" font-size="14" fill="white">검색 기록 격리</text>
  <text x="540" y="252" text-anchor="middle" font-family="Arial" font-size="22" fill="white">File Manager</text>
  <text x="540" y="288" text-anchor="middle" font-family="Arial" font-size="14" fill="white">파일 작업 격리</text>
  <path d="M650 120 C700 120 700 170 700 185" stroke="#334155" stroke-width="3" fill="none" marker-end="url(#a)"/>
  <path d="M650 260 C700 260 700 220 700 205" stroke="#334155" stroke-width="3" fill="none" marker-end="url(#a)"/>
  <text x="795" y="192" text-anchor="middle" font-family="Arial" font-size="20" fill="white">짧은 결과만</text>
  <text x="795" y="224" text-anchor="middle" font-family="Arial" font-size="20" fill="white">메인으로 반환</text>
  <defs><marker id="a" markerWidth="10" markerHeight="10" refX="8" refY="3" orient="auto"><path d="M0,0 L0,6 L9,3 z" fill="#334155"/></marker></defs>
</svg>
